<?xml version="1.0" encoding="UTF-8"?>
<svg enable-background="new 0 0 512.001 512.001" version="1.1" viewBox="0 0 512 512" xml:space="preserve" xmlns="http://www.w3.org/2000/svg">
<path d="m430.83 86.605c-49.161-51.53-124.71-59.44-180.6-28.393-4.829 2.682-6.568 8.772-3.886 13.6 2.682 4.83 8.772 6.567 13.6 3.886 51.118-28.401 115.44-18.236 156.37 24.671 42.236 44.811 46.992 111.61 14.317 161.13-45.008 68.362-142.22 78.664-200.5 20.37-39.273-39.259-50.651-102.57-22.282-154.09 2.662-4.84 0.897-10.922-3.942-13.584-4.839-2.66-10.92-0.897-13.584 3.942-0.613 1.115-1.703 3.193-2.754 5.324h1e-3c-29.088 59.294-15.854 128.3 28.418 172.56 67.148 67.162 179.31 55.53 231.34-23.507 37.317-56.559 32.739-133.66-16.504-185.9z"/>
<path d="m456.44 55.562c-74.091-74.081-194.65-74.084-268.74 1e-3 -66.628 66.638-73.801 171.12-19.542 245.86l-31.167 31.16c-10.927-5.23-24.745-3.542-34.155 5.869l-88.162 88.172c-19.547 19.534-19.563 51.168-5e-3 70.713 19.539 19.552 51.172 19.56 70.715 2e-3l88.175-88.164c9.406-9.408 11.1-23.226 5.868-34.154l31.163-31.17c74.758 54.271 179.23 47.079 245.86-19.54 74.084-74.093 74.084-194.65 0-268.74zm-297.03 339.46-88.177 88.166c-11.719 11.728-30.689 11.739-42.424-5e-3 -11.73-11.721-11.737-30.691 2e-3 -42.422l88.164-88.174c3.897-3.898 10.242-3.9 14.139 0l28.295 28.295c3.9 3.898 3.9 10.242 1e-3 14.14zm7.072-35.357-14.148-14.148 28.481-28.474c2.234 2.479 4.529 4.909 6.88 7.259 2.351 2.351 4.78 4.647 7.261 6.882l-28.474 28.481zm275.81-49.507c-66.277 66.267-173.64 66.831-240.46 0-66.743-66.736-66.346-174.1 0-240.46 66.289-66.28 174.16-66.291 240.46 0 66.285 66.294 66.285 174.16 1e-3 240.46z"/>
<path d="m230.37 84.108c-0.07-0.09-0.15-0.17-0.24-0.26-3.911-3.901-10.242-3.901-14.152 0-3.901 3.911-3.901 10.242 0 14.152 0.09 0.09 0.17 0.17 0.26 0.25 3.931 3.651 10.072 3.561 13.892-0.25 3.81-3.821 3.9-9.962 0.24-13.892z"/>
</svg>
